# Blender 4.2.0
# www.blender.org
mtllib M1Garand.mtl
o Cube
v 0.365259 0.466076 -1.464591
v 0.365259 0.775753 -1.421679
v 0.365259 0.175317 -2.453224
v 0.365259 0.724422 -2.499899
v 0.289385 0.466076 -1.464591
v 0.289385 0.775753 -1.421679
v 0.289385 0.175317 -2.453224
v 0.289385 0.724422 -2.499899
v 0.365259 0.442212 -1.338717
v 0.365259 0.751890 -1.295804
v 0.289385 0.751890 -1.295804
v 0.289385 0.442212 -1.338717
v 0.365259 0.436216 -1.295447
v 0.365259 0.781577 -1.252534
v 0.289385 0.781577 -1.252534
v 0.289385 0.436216 -1.295447
v 0.365259 0.655202 -1.091066
v 0.365259 0.917993 -1.071897
v 0.289385 0.917993 -1.071897
v 0.289385 0.655202 -1.091066
v 0.365259 0.642966 -0.275385
v 0.365259 0.998260 -0.256215
v 0.289385 0.998260 -0.256215
v 0.289385 0.642966 -0.275385
v 0.365259 0.679568 -0.152691
v 0.365259 0.991640 -0.133521
v 0.289385 0.991640 -0.133521
v 0.289385 0.679568 -0.152691
v 0.365259 0.863656 1.791091
v 0.365259 1.062293 1.810260
v 0.289385 1.062293 1.810260
v 0.289385 0.863656 1.791091
v 0.365259 0.903472 2.426166
v 0.365259 1.043478 2.422618
v 0.289385 1.043478 2.422618
v 0.289385 0.903472 2.426166
v 0.361871 0.974752 2.443182
v 0.361871 1.043909 2.439635
v 0.292774 1.043909 2.439635
v 0.292774 0.974752 2.443182
v 0.361871 0.973372 2.509274
v 0.361871 1.042529 2.505727
v 0.292774 1.042529 2.505727
v 0.292774 0.973372 2.509274
v 0.382754 0.734300 -1.427423
v 0.382754 0.650918 -2.493651
v 0.275523 0.650918 -2.493651
v 0.275523 0.734300 -1.427423
v 0.382754 0.710436 -1.301548
v 0.275523 0.710436 -1.301548
v 0.382754 0.735347 -1.258278
v 0.275523 0.735347 -1.258278
v 0.382754 0.882816 -1.074463
v 0.275523 0.882816 -1.074463
v 0.382754 0.950700 -0.258781
v 0.275523 0.950700 -0.258781
v 0.382754 0.949866 -0.136087
v 0.275523 0.949866 -0.136087
v 0.382754 1.035703 1.807694
v 0.275523 1.035703 1.807694
v 0.382754 1.024737 2.423093
v 0.275523 1.024737 2.423093
v 0.379365 1.034652 2.440110
v 0.278911 1.034652 2.440110
v 0.379365 1.033272 2.506202
v 0.278911 1.033272 2.506202
v 0.394270 0.251255 -2.457918
v 0.264388 0.250157 -2.457918
v 0.264388 0.516835 -1.460275
v 0.264388 0.492972 -1.334401
v 0.264388 0.490565 -1.291131
v 0.264388 0.701245 -1.089138
v 0.264388 0.698313 -0.273457
v 0.264388 0.730568 -0.150762
v 0.264388 0.903247 1.793019
v 0.264388 0.937166 2.425808
v 0.267777 1.001321 2.442826
v 0.267777 0.999941 2.508917
v 0.394270 0.517933 -1.460275
v 0.394270 0.494069 -1.334401
v 0.394270 0.491662 -1.291131
v 0.394270 0.702343 -1.089138
v 0.394270 0.699411 -0.273457
v 0.394270 0.731665 -0.150763
v 0.394270 0.904345 1.793019
v 0.394270 0.938263 2.425809
v 0.390881 1.002418 2.442826
v 0.390881 1.001038 2.508917
v 0.328689 1.042454 2.505196
v 0.328689 1.039466 2.785656
v 0.348888 1.035890 2.505019
v 0.348888 1.032902 2.785480
v 0.361372 1.018703 2.504555
v 0.361372 1.015715 2.785016
v 0.361372 0.997460 2.503983
v 0.361372 0.994472 2.784443
v 0.348888 0.980274 2.503519
v 0.348888 0.977286 2.783979
v 0.328689 0.973709 2.503342
v 0.328689 0.970721 2.783803
v 0.308490 0.980274 2.503519
v 0.308490 0.977286 2.783979
v 0.296006 0.997460 2.503983
v 0.296006 0.994472 2.784443
v 0.296006 1.018703 2.504555
v 0.296006 1.015715 2.785016
v 0.308490 1.035890 2.505019
v 0.308490 1.032902 2.785480
v 0.328689 0.974770 2.430943
v 0.328689 0.974855 2.598475
v 0.343295 0.970023 2.430815
v 0.343295 0.970108 2.598348
v 0.352322 0.957595 2.430480
v 0.352322 0.957681 2.598012
v 0.352322 0.942235 2.430066
v 0.352322 0.942320 2.597598
v 0.343295 0.929807 2.429730
v 0.343295 0.929893 2.597263
v 0.328689 0.925060 2.429602
v 0.328689 0.925146 2.597135
v 0.314083 0.929807 2.429730
v 0.314083 0.929893 2.597263
v 0.305056 0.942235 2.430066
v 0.305056 0.942320 2.597598
v 0.305056 0.957595 2.430480
v 0.305056 0.957681 2.598012
v 0.314083 0.970023 2.430815
v 0.314083 0.970108 2.598348
vn 0.9565 0.2910 -0.0183
vn -0.0000 -0.0847 -0.9964
vn -0.9720 0.2344 -0.0147
vn -0.0000 0.9825 0.1863
vn -0.0000 -0.9594 0.2822
vn -0.0000 0.9989 -0.0476
vn -0.0000 0.8246 -0.5657
vn -0.9492 0.3093 0.0586
vn 0.8723 -0.4804 -0.0911
vn -0.0000 -0.9825 -0.1863
vn -0.0000 -0.6823 0.7311
vn -0.9260 0.3192 -0.2014
vn -0.0000 -0.9905 -0.1373
vn 0.8803 -0.4723 -0.0459
vn -0.0000 0.9952 -0.0979
vn 0.7508 -0.4539 0.4799
vn -0.0000 0.7980 -0.6026
vn -0.9054 0.3350 -0.2609
vn -0.9552 0.2959 0.0090
vn -0.9472 0.3192 -0.0290
vn -0.0000 -0.9999 -0.0150
vn 0.8725 -0.4886 -0.0045
vn -0.0000 -0.9955 0.0943
vn -0.0000 -0.9583 0.2859
vn 0.8722 -0.4709 0.1321
vn -0.0000 0.9985 0.0539
vn -0.0000 0.9995 0.0307
vn 0.8460 -0.5310 0.0487
vn -0.0000 0.9993 -0.0363
vn -0.9262 0.3768 -0.0152
vn -0.0000 0.9997 -0.0253
vn -0.8533 0.5213 0.0126
vn -0.0000 -0.9980 0.0626
vn 0.7920 -0.6095 0.0354
vn -0.5549 0.8318 0.0174
vn -0.7100 0.7006 -0.0716
vn -0.0000 -0.2322 0.9727
vn 0.2526 -0.2239 0.9413
vn -0.0000 0.0512 0.9987
vn -0.0000 -0.9998 -0.0209
vn 0.6900 -0.7237 -0.0151
vn -0.0000 0.9998 0.0209
vn 0.4672 0.8839 0.0185
vn -0.0004 0.0825 0.9966
vn 0.6228 0.7744 -0.1114
vn -0.9691 0.1705 -0.1781
vn -0.9483 0.3173 0.0066
vn 0.7919 0.6105 0.0148
vn -0.9949 0.1008 -0.0019
vn -0.9980 0.0635 -0.0042
vn 0.8895 0.4566 -0.0184
vn 0.9313 0.3641 0.0111
vn 0.9197 0.3911 -0.0355
vn -0.9987 0.0514 -0.0020
vn -0.9989 0.0475 -0.0061
vn -0.9969 0.0581 -0.0539
vn 0.8606 0.4018 -0.3130
vn 0.8893 0.3868 -0.2440
vn -0.9987 0.0500 -0.0130
vn 0.9225 0.3793 0.0719
vn -0.9987 0.0497 0.0094
vn -0.9993 0.0360 -0.0061
vn 0.0004 -0.0889 -0.9960
vn 0.9993 0.0373 -0.0063
vn 0.9046 -0.4104 0.1152
vn 0.0003 -0.0622 -0.9981
vn -0.9243 -0.3676 0.1032
vn -0.8968 -0.4346 -0.0824
vn -0.9036 -0.4264 -0.0414
vn -0.7901 -0.4212 0.4453
vn -0.8968 -0.4259 0.1195
vn -0.8970 -0.4421 -0.0041
vn -0.8739 -0.4841 0.0444
vn -0.8253 -0.5637 0.0328
vn -0.7282 -0.6853 -0.0143
vn -0.2795 -0.2208 0.9344
vn -0.0001 0.0132 0.9999
vn 0.9415 0.3370 0.0070
vn 0.9643 0.1782 -0.1957
vn 0.9944 0.1053 -0.0019
vn 0.9978 0.0661 -0.0044
vn 0.9988 0.0494 -0.0063
vn 0.9986 0.0534 -0.0021
vn 0.9966 0.0604 -0.0561
vn 0.9986 0.0519 -0.0135
vn 0.9986 0.0517 0.0098
vn -0.3091 -0.9510 -0.0101
vn -0.8091 -0.5876 -0.0063
vn -1.0000 -0.0000 -0.0000
vn -0.8091 0.5876 0.0063
vn -0.3091 0.9510 0.0101
vn 0.3091 0.9510 0.0101
vn 0.8091 0.5876 0.0063
vn 1.0000 -0.0000 -0.0000
vn -0.0000 0.0270 -0.9996
vn 0.8091 -0.5876 -0.0063
vn 0.3091 -0.9510 -0.0101
vn -0.0000 -0.0270 0.9996
vn -0.3091 -0.9510 0.0005
vn -0.8091 -0.5877 0.0003
vn -0.8091 0.5877 -0.0003
vn -0.3091 0.9510 -0.0005
vn 0.3091 0.9510 -0.0005
vn 0.8091 0.5877 -0.0003
vn 0.8091 -0.5877 0.0003
vn 0.3091 -0.9510 0.0005
vt 0.591535 0.000000
vt 0.625000 0.000000
vt 0.625000 0.250000
vt 0.591535 0.250000
vt 0.625000 0.500000
vt 0.591535 0.500000
vt 0.625000 0.750000
vt 0.591535 0.750000
vt 0.875000 0.750000
vt 0.125000 0.500000
vt 0.375000 0.500000
vt 0.375000 0.750000
vt 0.125000 0.750000
vt 0.875000 0.500000
vt 0.400144 0.000000
vt 0.375000 0.000000
vt 0.400144 0.000000
vt 0.591535 0.750000
vt 0.400144 0.000000
vt 0.591535 0.750000
vt 0.591535 0.750000
vt 0.591535 0.750000
vt 0.625000 1.000000
vt 0.591535 1.000000
vt 0.591535 0.000000
vt 0.400144 0.750000
vt 0.400144 1.000000
vt 0.400144 0.750000
vt 0.591535 0.000000
vt 0.400144 0.750000
vt 0.400144 0.750000
vt 0.400144 0.500000
vt 0.400144 0.250000
vt 0.375000 0.250000
vt 0.375000 1.000000
vt 1.000000 0.500000
vt 1.000000 1.000000
vt 0.900000 1.000000
vt 0.900000 0.500000
vt 0.800000 1.000000
vt 0.800000 0.500000
vt 0.700000 1.000000
vt 0.700000 0.500000
vt 0.600000 1.000000
vt 0.600000 0.500000
vt 0.500000 1.000000
vt 0.500000 0.500000
vt 0.400000 1.000000
vt 0.400000 0.500000
vt 0.300000 1.000000
vt 0.300000 0.500000
vt 0.200000 1.000000
vt 0.200000 0.500000
vt 0.891068 0.444164
vt 0.750000 0.490000
vt 0.608932 0.444164
vt 0.521746 0.324164
vt 0.521746 0.175836
vt 0.608932 0.055836
vt 0.750000 0.010000
vt 0.891068 0.055836
vt 0.978254 0.175836
vt 0.978254 0.324164
vt 0.100000 1.000000
vt 0.100000 0.500000
vt -0.000000 1.000000
vt -0.000000 0.500000
vt 0.250000 0.490000
vt 0.391068 0.444164
vt 0.478254 0.324164
vt 0.478254 0.175836
vt 0.391068 0.055836
vt 0.250000 0.010000
vt 0.108932 0.055836
vt 0.021746 0.175836
vt 0.021746 0.324164
vt 0.108932 0.444164
s 0
f 45/1/1 46/4/1 4/3/1 2/2/1
f 46/4/2 47/6/2 8/5/2 4/3/2
f 47/6/3 48/8/3 6/7/3 8/5/3
f 6/7/4 11/7/4 10/9/4 2/9/4
f 3/10/5 1/13/5 5/12/5 7/11/5
f 8/5/6 6/7/6 2/9/6 4/14/6
f 11/7/7 15/7/7 14/9/7 10/9/7
f 48/8/8 50/8/8 11/7/8 6/7/8
f 79/15/9 80/17/9 9/16/9 1/16/9
f 1/13/10 9/13/10 12/12/10 5/12/10
f 13/13/11 17/13/11 20/12/11 16/12/11
f 50/8/12 52/18/12 15/7/12 11/7/12
f 9/13/13 13/13/13 16/12/13 12/12/13
f 80/17/14 81/19/14 13/16/14 9/16/14
f 19/7/15 23/7/15 22/9/15 18/9/15
f 81/19/16 82/15/16 17/16/16 13/16/16
f 15/7/17 19/7/17 18/9/17 14/9/17
f 52/18/18 54/8/18 19/7/18 15/7/18
f 56/8/19 58/18/19 27/7/19 23/7/19
f 54/8/20 56/8/20 23/7/20 19/7/20
f 17/13/21 21/13/21 24/12/21 20/12/21
f 82/15/22 83/19/22 21/16/22 17/16/22
f 25/13/23 29/13/23 32/12/23 28/12/23
f 21/13/24 25/13/24 28/12/24 24/12/24
f 83/19/25 84/17/25 25/16/25 21/16/25
f 23/7/26 27/7/26 26/9/26 22/9/26
f 31/7/27 35/7/27 34/9/27 30/9/27
f 84/17/28 85/15/28 29/16/28 25/16/28
f 27/7/29 31/7/29 30/9/29 26/9/29
f 58/18/30 60/8/30 31/7/30 27/7/30
f 35/7/31 39/7/31 38/9/31 34/9/31
f 60/8/32 62/20/32 35/7/32 31/7/32
f 29/13/33 33/13/33 36/12/33 32/12/33
f 85/15/34 86/15/34 33/16/34 29/16/34
f 64/21/35 66/22/35 43/7/35 39/7/35
f 62/20/36 64/21/36 39/7/36 35/7/36
f 33/13/37 37/13/37 40/12/37 36/12/37
f 86/15/38 87/15/38 37/16/38 33/16/38
f 66/22/39 65/24/39 42/23/39 43/7/39
f 37/13/40 41/13/40 44/12/40 40/12/40
f 87/15/41 88/17/41 41/16/41 37/16/41
f 39/7/42 43/7/42 42/9/42 38/9/42
f 38/2/43 42/2/43 65/1/43 63/25/43
f 78/26/44 88/27/44 65/24/44 66/22/44
f 34/2/45 38/2/45 63/25/45 61/1/45
f 76/28/46 77/28/46 64/21/46 62/20/46
f 77/28/47 78/26/47 66/22/47 64/21/47
f 30/2/48 34/2/48 61/1/48 59/1/48
f 75/28/49 76/28/49 62/20/49 60/8/49
f 74/26/50 75/28/50 60/8/50 58/18/50
f 26/2/51 30/2/51 59/1/51 57/29/51
f 22/2/52 26/2/52 57/29/52 55/1/52
f 18/2/53 22/2/53 55/1/53 53/1/53
f 72/28/54 73/30/54 56/8/54 54/8/54
f 73/30/55 74/26/55 58/18/55 56/8/55
f 71/31/56 72/28/56 54/8/56 52/18/56
f 14/2/57 18/2/57 53/1/57 51/25/57
f 10/2/58 14/2/58 51/25/58 49/1/58
f 70/30/59 71/31/59 52/18/59 50/8/59
f 2/2/60 10/2/60 49/1/60 45/1/60
f 69/26/61 70/30/61 50/8/61 48/8/61
f 68/32/62 69/26/62 48/8/62 47/6/62
f 67/33/63 68/32/63 47/6/63 46/4/63
f 79/15/64 67/33/64 46/4/64 45/1/64
f 1/16/65 3/34/65 67/33/65 79/15/65
f 3/34/66 7/11/66 68/32/66 67/33/66
f 7/11/67 5/12/67 69/26/67 68/32/67
f 5/12/68 12/12/68 70/30/68 69/26/68
f 12/12/69 16/12/69 71/31/69 70/30/69
f 16/12/70 20/12/70 72/28/70 71/31/70
f 24/12/71 28/12/71 74/26/71 73/30/71
f 20/12/72 24/12/72 73/30/72 72/28/72
f 28/12/73 32/12/73 75/28/73 74/26/73
f 32/12/74 36/12/74 76/28/74 75/28/74
f 40/12/75 44/12/75 78/26/75 77/28/75
f 36/12/76 40/12/76 77/28/76 76/28/76
f 44/12/77 41/35/77 88/27/77 78/26/77
f 63/25/78 65/1/78 88/17/78 87/15/78
f 61/1/79 63/25/79 87/15/79 86/15/79
f 59/1/80 61/1/80 86/15/80 85/15/80
f 57/29/81 59/1/81 85/15/81 84/17/81
f 55/1/82 57/29/82 84/17/82 83/19/82
f 53/1/83 55/1/83 83/19/83 82/15/83
f 51/25/84 53/1/84 82/15/84 81/19/84
f 49/1/85 51/25/85 81/19/85 80/17/85
f 45/1/86 49/1/86 80/17/86 79/15/86
f 89/36/87 91/39/87 92/38/87 90/37/87
f 91/39/88 93/41/88 94/40/88 92/38/88
f 93/41/89 95/43/89 96/42/89 94/40/89
f 95/43/90 97/45/90 98/44/90 96/42/90
f 97/45/91 99/47/91 100/46/91 98/44/91
f 99/47/92 101/49/92 102/48/92 100/46/92
f 101/49/93 103/51/93 104/50/93 102/48/93
f 103/51/94 105/53/94 106/52/94 104/50/94
f 92/54/95 94/63/95 96/62/95 98/61/95 100/60/95 102/59/95 104/58/95 106/57/95 108/56/95 90/55/95
f 105/53/96 107/65/96 108/64/96 106/52/96
f 107/65/97 89/67/97 90/66/97 108/64/97
f 89/68/98 107/77/98 105/76/98 103/75/98 101/74/98 99/73/98 97/72/98 95/71/98 93/70/98 91/69/98
f 109/36/99 111/39/99 112/38/99 110/37/99
f 111/39/100 113/41/100 114/40/100 112/38/100
f 113/41/89 115/43/89 116/42/89 114/40/89
f 115/43/101 117/45/101 118/44/101 116/42/101
f 117/45/102 119/47/102 120/46/102 118/44/102
f 119/47/103 121/49/103 122/48/103 120/46/103
f 121/49/104 123/51/104 124/50/104 122/48/104
f 123/51/94 125/53/94 126/52/94 124/50/94
f 112/54/95 114/63/95 116/62/95 118/61/95 120/60/95 122/59/95 124/58/95 126/57/95 128/56/95 110/55/95
f 125/53/105 127/65/105 128/64/105 126/52/105
f 127/65/106 109/67/106 110/66/106 128/64/106
f 109/68/98 127/77/98 125/76/98 123/75/98 121/74/98 119/73/98 117/72/98 115/71/98 113/70/98 111/69/98
